<?xml version="1.0" encoding="UTF-8"?>
<svg width="24px" height="24px" viewBox="0 0 24 24" version="1.1" xmlns="http://www.w3.org/2000/svg" xmlns:xlink="http://www.w3.org/1999/xlink">
    <!-- Generator: sketchtool 55.2 (78181) - https://sketchapp.com -->
    <title>E623A579-6EF8-41D9-A54A-6AB1DC8F9555</title>
    <desc>Created with sketchtool.</desc>
    <g id="home" stroke="none" stroke-width="1" fill="none" fill-rule="evenodd">
        <g id="desktop" transform="translate(-833.000000, -3899.000000)" fill="#FFFFFF">
            <g id="FOOTER" transform="translate(0.000000, 3726.000000)">
                <g id="socials" transform="translate(491.000000, 112.000000)">
                    <g id="social-icons" transform="translate(0.000000, 61.000000)">
                        <g id="Pinterest/Black" transform="translate(342.000000, 0.000000)">
                            <g id="Pinterest">
                                <path d="M12.0007056,0 C5.37378726,0 0,5.37237608 0,12.0007056 C0,16.9130358 2.95501852,21.1352972 7.18433586,22.9910037 C7.15046745,22.1541718 7.17869113,21.1465867 7.39177986,20.2349621 C7.62321397,19.2612454 8.93561475,13.6969483 8.93561475,13.6969483 C8.93561475,13.6969483 8.55318398,12.9306756 8.55318398,11.7974951 C8.55318398,10.0194038 9.58475922,8.69147998 10.8675251,8.69147998 C11.9583701,8.69147998 12.4861528,9.51137767 12.4861528,10.4935615 C12.4861528,11.5900512 11.7862057,13.2312577 11.4263539,14.7511025 C11.1257717,16.0254013 12.0642089,17.0626213 13.3201623,17.0626213 C15.5935791,17.0626213 17.1247134,14.1428823 17.1247134,10.6826601 C17.1247134,8.05362498 15.3536779,6.08502381 12.1319457,6.08502381 C8.49250309,6.08502381 6.22473099,8.79872993 6.22473099,11.8299524 C6.22473099,12.8770506 6.53236902,13.6136885 7.01499383,14.1838067 C7.23796084,14.447698 7.2675957,14.5521256 7.18715823,14.8541189 C7.13071088,15.0728524 6.99805962,15.6062798 6.94302346,15.8165461 C6.86258599,16.1199506 6.61704004,16.2300229 6.34327042,16.1171282 C4.66537308,15.4327042 3.88498853,13.5967543 3.88498853,11.5321926 C3.88498853,8.12418416 6.75956959,4.034574 12.4607515,4.034574 C17.0428647,4.034574 20.0585641,7.35226671 20.0585641,10.9098606 C20.0585641,15.6175692 17.4422297,19.1342388 13.5826424,19.1342388 C12.2885871,19.1342388 11.0693244,18.4342918 10.651614,17.6397954 C10.651614,17.6397954 9.95448933,20.4043041 9.80772623,20.9377315 C9.55371318,21.8620568 9.05556536,22.7877933 8.59975304,23.5074969 C9.67930852,23.8264244 10.8195449,24 12.0007056,24 C18.6276239,24 24,18.6276239 24,12.0007056 C24,5.37237608 18.6276239,0 12.0007056,0"></path>
                            </g>
                        </g>
                    </g>
                </g>
            </g>
        </g>
    </g>
</svg>