<?xml version="1.0" encoding="UTF-8"?>
<svg width="24px" height="19px" viewBox="0 0 24 19" version="1.1" xmlns="http://www.w3.org/2000/svg" xmlns:xlink="http://www.w3.org/1999/xlink">
    <!-- Generator: sketchtool 55.2 (78181) - https://sketchapp.com -->
    <title>14008357-EF0E-4AFB-8CE1-5101A00BCF9A</title>
    <desc>Created with sketchtool.</desc>
    <g id="home" stroke="none" stroke-width="1" fill="none" fill-rule="evenodd">
        <g id="desktop" transform="translate(-576.000000, -3901.000000)" fill="#FFFFFF">
            <g id="FOOTER" transform="translate(0.000000, 3726.000000)">
                <g id="socials" transform="translate(491.000000, 112.000000)">
                    <g id="social-icons" transform="translate(0.000000, 61.000000)">
                        <g id="Twitter/Black" transform="translate(85.000000, 2.000000)">
                            <g id="Twitter">
                                <path d="M24,2.24925966 C23.1181546,2.63076923 22.1686917,2.88876851 21.1727417,3.00404478 C22.1898222,2.41119538 22.9702412,1.47114482 23.3379116,0.351318165 C22.3856313,0.900252799 21.3333333,1.29960274 20.2091918,1.51368725 C19.3132594,0.581870711 18.0327522,0 16.6156013,0 C13.8982215,0 11.693608,2.14770675 11.693608,4.79631636 C11.693608,5.17233658 11.735869,5.53737811 11.8203909,5.88869628 C7.72812115,5.68833514 4.10072196,3.78078729 1.67071668,0.87555074 C1.24669836,1.58642109 1.00440218,2.41119538 1.00440218,3.28949079 C1.00440218,4.95276273 1.87356929,6.42116287 3.19492868,7.28161791 C2.38915302,7.25828819 1.62845571,7.04008667 0.963549921,6.68327916 L0.963549921,6.74228964 C0.963549921,9.06702781 2.66103187,11.0061394 4.91494982,11.4452871 C4.50220109,11.5578187 4.06691319,11.6140845 3.6175383,11.6140845 C3.30058109,11.6140845 2.99066737,11.5852654 2.69061454,11.5289996 C3.31748547,13.4338028 5.13470681,14.8212351 7.29001585,14.8582882 C5.60521219,16.1455399 3.48089452,16.9126761 1.17485473,16.9126761 C0.77760169,16.9126761 0.384574749,16.8907187 0,16.8468039 C2.17925691,18.2054171 4.76844515,19 7.54780771,19 C16.6057404,19 21.5573164,11.6923077 21.5573164,5.35348501 C21.5573164,5.14488985 21.5530903,4.93629469 21.5446381,4.73181654 C22.5067794,4.0552546 23.3421377,3.21126761 24,2.24925966"></path>
                            </g>
                        </g>
                    </g>
                </g>
            </g>
        </g>
    </g>
</svg>