<?xml version="1.0" encoding="UTF-8"?>
<svg width="31px" height="22px" viewBox="0 0 31 22" version="1.1" xmlns="http://www.w3.org/2000/svg" xmlns:xlink="http://www.w3.org/1999/xlink">
    <!-- Generator: sketchtool 55.2 (78181) - https://sketchapp.com -->
    <title>47122A58-F281-4D54-A4AA-F7B65954F784</title>
    <desc>Created with sketchtool.</desc>
    <g id="home" stroke="none" stroke-width="1" fill="none" fill-rule="evenodd">
        <g id="desktop" transform="translate(-918.000000, -3900.000000)" fill="#FFFFFF">
            <g id="FOOTER" transform="translate(0.000000, 3726.000000)">
                <g id="socials" transform="translate(491.000000, 112.000000)">
                    <g id="social-icons" transform="translate(0.000000, 61.000000)">
                        <g id="Youtube/Black" transform="translate(427.000000, 1.000000)">
                            <g id="Youtube">
                                <path d="M12.29925,15.0570045 L12.2982813,6.26853868 L20.6740938,10.6779224 L12.29925,15.0570045 Z M30.69,4.74563469 C30.69,4.74563469 30.3867812,2.59030524 29.45775,1.6411783 C28.2787812,0.394899365 26.9574062,0.389034523 26.3519375,0.316701471 C22.013875,0 15.5067812,0 15.5067812,0 L15.4932187,0 C15.4932187,0 8.986125,0 4.6480625,0.316701471 C4.041625,0.389034523 2.72121875,0.394899365 1.54128125,1.6411783 C0.61225,2.59030524 0.31,4.74563469 0.31,4.74563469 C0.31,4.74563469 0,7.27729151 0,9.80797085 L0,12.1812769 C0,14.7129338 0.31,17.2436131 0.31,17.2436131 C0.31,17.2436131 0.61225,19.3989426 1.54128125,20.3480695 C2.72121875,21.5943484 4.27025,21.5552495 4.96,21.6852535 C7.44,21.925712 15.5,22 15.5,22 C15.5,22 22.013875,21.9902253 26.3519375,21.6735238 C26.9574062,21.6002133 28.2787812,21.5943484 29.45775,20.3480695 C30.3867812,19.3989426 30.69,17.2436131 30.69,17.2436131 C30.69,17.2436131 31,14.7129338 31,12.1812769 L31,9.80797085 C31,7.27729151 30.69,4.74563469 30.69,4.74563469 L30.69,4.74563469 Z"></path>
                            </g>
                        </g>
                    </g>
                </g>
            </g>
        </g>
    </g>
</svg>